### L05_c: Eukaryotic Plant Cell + Mitochondria + Chloroplast ###
<svg xmlns="http://www.w3.org/2000/svg" viewBox="0 0 600 700" style="background:#fff">
  <defs><linearGradient id="hdr" x1="0" y1="0" x2="1" y2="0"><stop offset="0%" stop-color="#1a6b3c"/><stop offset="100%" stop-color="#43a047"/></linearGradient></defs>
  <rect width="600" height="700" fill="#fff"/>
  <rect x="0" y="0" width="600" height="42" fill="url(#hdr)"/>
  <text x="300" y="28" text-anchor="middle" fill="#fff" font-family="Arial" font-weight="bold" font-size="16">Eukaryotic Plant Cell — Organelles &amp; Structures</text>

  <!-- Cell wall -->
  <rect x="50" y="52" width="500" height="240" rx="8" fill="#e8f5e9" stroke="#2e7d32" stroke-width="3"/>
  <text x="550" y="70" fill="#2e7d32" font-family="Arial" font-weight="bold" font-size="11">Cell Wall</text>
  <text x="550" y="84" fill="#666" font-family="Arial" font-size="9">(cellulose)</text>

  <!-- Plasma membrane -->
  <rect x="58" y="58" width="484" height="228" rx="6" fill="none" stroke="#1565c0" stroke-width="2" stroke-dasharray="5,3"/>
  <text x="545" y="100" fill="#1565c0" font-family="Arial" font-size="10">Plasma</text>
  <text x="545" y="112" fill="#1565c0" font-family="Arial" font-size="10">membrane</text>

  <!-- Nucleus -->
  <ellipse cx="200" cy="150" rx="55" ry="40" fill="#e3f2fd" stroke="#1565c0" stroke-width="2.5"/>
  <ellipse cx="200" cy="150" rx="51" ry="36" fill="none" stroke="#1565c0" stroke-width="1"/>
  <circle cx="195" cy="155" r="12" fill="#1a237e" opacity="0.6"/>
  <text x="195" y="159" text-anchor="middle" fill="#fff" font-family="Arial" font-weight="bold" font-size="8">Nucleolus</text>
  <text x="200" y="205" text-anchor="middle" fill="#1565c0" font-family="Arial" font-size="10">Nucleus</text>

  <!-- Mitochondria -->
  <ellipse cx="120" cy="240" rx="35" ry="18" fill="#fff9c4" stroke="#ff8f00" stroke-width="2"/>
  <ellipse cx="120" cy="240" rx="30" ry="14" fill="none" stroke="#e65100" stroke-width="1.2"/>
  <path d="M100,240 C104,230 108,230 112,240" stroke="#e65100" stroke-width="1" fill="none"/>
  <text x="120" y="268" text-anchor="middle" fill="#ff8f00" font-family="Arial" font-size="9">Mitochondria</text>

  <!-- Chloroplasts -->
  <ellipse cx="380" cy="230" rx="40" ry="18" fill="#c8e6c9" stroke="#2e7d32" stroke-width="2.5"/>
  <ellipse cx="380" cy="230" rx="36" ry="14" fill="none" stroke="#1b5e20" stroke-width="1"/>
  <rect x="358" y="224" width="15" height="3" fill="#1b5e20"/>
  <rect x="375" y="224" width="15" height="3" fill="#1b5e20"/>
  <rect x="358" y="229" width="15" height="3" fill="#1b5e20"/>
  <rect x="375" y="229" width="15" height="3" fill="#1b5e20"/>
  <rect x="358" y="234" width="15" height="3" fill="#1b5e20"/>
  <rect x="375" y="234" width="15" height="3" fill="#1b5e20"/>
  <text x="380" y="260" text-anchor="middle" fill="#2e7d32" font-family="Arial" font-weight="bold" font-size="10">Chloroplast</text>

  <!-- Central vacuole -->
  <ellipse cx="370" cy="130" rx="65" ry="45" fill="#e8eaf6" stroke="#7986cb" stroke-width="2"/>
  <text x="370" y="135" text-anchor="middle" fill="#3f51b5" font-family="Arial" font-weight="bold" font-size="11">Central Vacuole</text>
  <text x="370" y="150" text-anchor="middle" fill="#666" font-family="Arial" font-size="9">(Tonoplast membrane)</text>

  <!-- Golgi -->
  <path d="M280,180 C290,176 298,180 292,186 C298,190 290,194 280,190" stroke="#333" stroke-width="1.5" fill="#fff9c4"/>
  <path d="M276,190 C286,186 294,190 288,196 C294,200 286,204 276,200" stroke="#333" stroke-width="1.5" fill="#fff9c4"/>
  <text x="300" y="210" fill="#333" font-family="Arial" font-size="8">Golgi</text>

  <!-- RER -->
  <path d="M90,120 C100,116 108,120 100,126" stroke="#333" stroke-width="1.5" fill="none"/>
  <path d="M85,135 C95,131 103,135 95,141" stroke="#333" stroke-width="1.5" fill="none"/>
  <circle cx="92" cy="120" r="2.5" fill="#6a1b9a"/><circle cx="96" cy="124" r="2.5" fill="#6a1b9a"/>
  <text x="75" y="148" fill="#333" font-family="Arial" font-size="8">RER</text>

  <!-- Plasmodesmata -->
  <line x1="50" y1="195" x2="30" y2="195" stroke="#333" stroke-width="2"/>
  <text x="20" y="190" fill="#666" font-family="Arial" font-size="8">Plasmo-</text>
  <text x="20" y="202" fill="#666" font-family="Arial" font-size="8">desmata</text>

  <!-- Mitochondrion detailed cross section -->
  <text x="300" y="315" text-anchor="middle" fill="#333" font-family="Arial" font-weight="bold" font-size="16">Mitochondrion — Detail</text>
  <ellipse cx="300" cy="390" rx="110" ry="55" fill="#fff9c4" stroke="#ff8f00" stroke-width="3"/>
  <ellipse cx="300" cy="390" rx="100" ry="48" fill="none" stroke="#e65100" stroke-width="2"/>
  <!-- Cristae -->
  <path d="M240,390 C250,365 260,365 265,390" stroke="#e65100" stroke-width="2.5" fill="none"/>
  <path d="M275,390 C280,360 290,360 295,390" stroke="#e65100" stroke-width="2.5" fill="none"/>
  <path d="M305,390 C310,360 320,360 325,390" stroke="#e65100" stroke-width="2.5" fill="none"/>
  <path d="M335,390 C345,365 355,365 360,390" stroke="#e65100" stroke-width="2.5" fill="none"/>
  <!-- Intermembrane space -->
  <text x="310" y="326" fill="#e65100" font-family="Arial" font-size="10">Intermembrane space</text>
  <!-- Matrix -->
  <text x="300" y="420" text-anchor="middle" fill="#e65100" font-family="Arial" font-weight="bold" font-size="12">Matrix</text>
  <text x="300" y="435" text-anchor="middle" fill="#666" font-family="Arial" font-size="10">(Krebs cycle, mtDNA, 70S ribosomes)</text>
  <!-- Cristae label -->
  <text x="380" y="355" fill="#e65100" font-family="Arial" font-size="11" font-weight="bold">Cristae</text>
  <text x="380" y="370" fill="#666" font-family="Arial" font-size="10">(ETC +</text>
  <text x="380" y="384" fill="#666" font-family="Arial" font-size="10">ATP synthase)</text>

  <!-- Chloroplast detailed -->
  <text x="300" y="470" text-anchor="middle" fill="#333" font-family="Arial" font-weight="bold" font-size="16">Chloroplast — Detail</text>
  <ellipse cx="300" cy="545" rx="110" ry="50" fill="#c8e6c9" stroke="#2e7d32" stroke-width="3"/>
  <ellipse cx="300" cy="545" rx="100" ry="44" fill="none" stroke="#1b5e20" stroke-width="2"/>
  <!-- Grana stacks -->
  <g fill="#1b5e20">
    <rect x="250" y="520" width="28" height="6" rx="1"/><rect x="252" y="515" width="24" height="6" rx="1"/><rect x="250" y="525" width="28" height="6" rx="1"/><rect x="252" y="530" width="24" height="6" rx="1"/>
    <rect x="310" y="515" width="28" height="6" rx="1"/><rect x="312" y="510" width="24" height="6" rx="1"/><rect x="310" y="520" width="28" height="6" rx="1"/><rect x="312" y="525" width="24" height="6" rx="1"/>
    <rect x="340" y="540" width="28" height="6" rx="1"/><rect x="342" y="535" width="24" height="6" rx="1"/><rect x="340" y="545" width="28" height="6" rx="1"/>
  </g>
  <!-- Lamellae -->
  <line x1="278" y1="522" x2="310" y2="517" stroke="#43a047" stroke-width="1.5"/>
  <line x1="338" y1="517" x2="340" y2="540" stroke="#43a047" stroke-width="1.5"/>
  <!-- Labels -->
  <text x="240" y="505" fill="#1b5e20" font-family="Arial" font-size="11" font-weight="bold">Grana</text>
  <text x="240" y="555" fill="#666" font-family="Arial" font-size="10">(thylakoid stacks)</text>
  <text x="380" y="530" fill="#1b5e20" font-family="Arial" font-size="11" font-weight="bold">Stroma</text>
  <text x="380" y="545" fill="#666" font-family="Arial" font-size="10">(Calvin cycle,</text>
  <text x="380" y="560" fill="#666" font-family="Arial" font-size="10">cpDNA, 70S)</text>
  <text x="380" y="580" fill="#666" font-family="Arial" font-size="9">Starch grain ●</text>

  <!-- Bottom comparison -->
  <rect x="50" y="610" width="500" height="80" rx="8" fill="#f5f5f5"/>
  <text x="300" y="632" text-anchor="middle" fill="#333" font-family="Arial" font-weight="bold" font-size="13">Plant Cell Unique Features vs. Animal Cell</text>
  <text x="70" y="655" fill="#333" font-family="Arial" font-size="11">Cell wall (cellulose) | Chloroplasts | Large central vacuole | Plasmodesmata | Starch storage | No centrioles</text>
  <text x="70" y="674" fill="#666" font-family="Arial" font-size="10">Shared: Nucleus, ER, Golgi, Mitochondria, 80S Ribosomes, Plasma membrane, Cytoskeleton</text>
</svg>