### L06_b: 70S vs 80S + Cytoskeleton ###
<svg xmlns="http://www.w3.org/2000/svg" viewBox="0 0 600 650" style="background:#fff">
  <defs><linearGradient id="hdr" x1="0" y1="0" x2="1" y2="0"><stop offset="0%" stop-color="#1a6b3c"/><stop offset="100%" stop-color="#43a047"/></linearGradient></defs>
  <rect width="600" height="650" fill="#fff"/>
  <rect x="0" y="0" width="600" height="42" fill="url(#hdr)"/>
  <text x="300" y="28" text-anchor="middle" fill="#fff" font-family="Arial" font-weight="bold" font-size="16">70S vs 80S Ribosomes &amp; The Cytoskeleton (HL)</text>

  <!-- Ribosome comparison -->
  <text x="150" y="70" text-anchor="middle" fill="#333" font-family="Arial" font-weight="bold" font-size="15">70S Ribosome</text>
  <text x="450" y="70" text-anchor="middle" fill="#333" font-family="Arial" font-weight="bold" font-size="15">80S Ribosome</text>

  <!-- 70S -->
  <ellipse cx="150" cy="140" rx="55" ry="35" fill="#e1bee7" stroke="#6a1b9a" stroke-width="2.5"/>
  <ellipse cx="165" cy="120" rx="40" ry="25" fill="#ce93d8" stroke="#6a1b9a" stroke-width="2"/>
  <text x="150" y="136" text-anchor="middle" fill="#6a1b9a" font-family="Arial" font-weight="bold" font-size="13">70S</text>
  <text x="165" y="122" text-anchor="middle" fill="#6a1b9a" font-family="Arial" font-weight="bold" font-size="10">50S</text>
  <text x="130" y="160" text-anchor="middle" fill="#6a1b9a" font-family="Arial" font-weight="bold" font-size="10">30S</text>

  <!-- A,P,E sites on 70S -->
  <rect x="115" y="148" width="18" height="12" fill="#fff" stroke="#333" stroke-width="1"/><text x="124" y="157" text-anchor="middle" fill="#333" font-family="Arial" font-size="9">E</text>
  <rect x="140" y="148" width="18" height="12" fill="#fff" stroke="#333" stroke-width="1"/><text x="149" y="157" text-anchor="middle" fill="#333" font-family="Arial" font-size="9">P</text>
  <rect x="165" y="148" width="18" height="12" fill="#fff" stroke="#333" stroke-width="1"/><text x="174" y="157" text-anchor="middle" fill="#333" font-family="Arial" font-size="9">A</text>

  <text x="150" y="185" text-anchor="middle" fill="#666" font-family="Arial" font-size="10">Prokaryotes</text>
  <text x="150" y="200" text-anchor="middle" fill="#666" font-family="Arial" font-size="10">Mitochondria, Chloroplasts</text>

  <!-- 80S -->
  <ellipse cx="450" cy="140" rx="65" ry="40" fill="#fff9c4" stroke="#ff8f00" stroke-width="2.5"/>
  <ellipse cx="465" cy="118" rx="48" ry="28" fill="#ffe082" stroke="#e65100" stroke-width="2"/>
  <text x="450" y="136" text-anchor="middle" fill="#e65100" font-family="Arial" font-weight="bold" font-size="13">80S</text>
  <text x="465" y="120" text-anchor="middle" fill="#e65100" font-family="Arial" font-weight="bold" font-size="10">60S</text>
  <text x="420" y="165" text-anchor="middle" fill="#e65100" font-family="Arial" font-weight="bold" font-size="10">40S</text>

  <!-- A,P,E on 80S -->
  <rect x="400" y="150" width="18" height="12" fill="#fff" stroke="#333" stroke-width="1"/><text x="409" y="159" text-anchor="middle" fill="#333" font-family="Arial" font-size="9">E</text>
  <rect x="428" y="150" width="18" height="12" fill="#fff" stroke="#333" stroke-width="1"/><text x="437" y="159" text-anchor="middle" fill="#333" font-family="Arial" font-size="9">P</text>
  <rect x="456" y="150" width="18" height="12" fill="#fff" stroke="#333" stroke-width="1"/><text x="465" y="159" text-anchor="middle" fill="#333" font-family="Arial" font-size="9">A</text>

  <text x="450" y="185" text-anchor="middle" fill="#666" font-family="Arial" font-size="10">Eukaryotic cytoplasm</text>
  <text x="450" y="200" text-anchor="middle" fill="#666" font-family="Arial" font-size="10">(free + RER-bound)</text>

  <!-- Comparison arrow -->
  <text x="300" y="225" text-anchor="middle" fill="#333" font-family="Arial" font-size="11">A→P→E: tRNA binding sites | S values NOT additive | 70S sensitive to antibiotics</text>

  <!-- Cytoskeleton section -->
  <rect x="20" y="245" width="560" height="3" fill="#ddd"/>

  <text x="300" y="275" text-anchor="middle" fill="#333" font-family="Arial" font-weight="bold" font-size="16">The Cytoskeleton — Three Fiber Types</text>

  <!-- Microtubule -->
  <rect x="20" y="290" width="175" height="250" rx="8" fill="#e8f5e9" stroke="#a5d6a7" stroke-width="2"/>
  <text x="107" y="315" text-anchor="middle" fill="#1a6b3c" font-family="Arial" font-weight="bold" font-size="13">Microtubule</text>
  <text x="107" y="332" text-anchor="middle" fill="#666" font-family="Arial" font-size="10">25 nm — Largest</text>
  <!-- Hollow tube -->
  <ellipse cx="107" cy="380" rx="40" ry="20" fill="#c8e6c9" stroke="#2e7d32" stroke-width="2.5"/>
  <ellipse cx="107" cy="380" rx="25" ry="12" fill="#fff" stroke="#2e7d32" stroke-width="1.5"/>
  <text x="107" y="415" text-anchor="middle" fill="#333" font-family="Arial" font-size="10">Hollow tube</text>
  <text x="107" y="430" text-anchor="middle" fill="#333" font-family="Arial" font-size="10">13 protofilaments</text>
  <text x="107" y="445" text-anchor="middle" fill="#333" font-family="Arial" font-size="10">α + β tubulin dimers</text>
  <line x1="55" y1="380" x2="70" y2="380" stroke="#e53935" stroke-width="2"/><text x="45" y="383" fill="#e53935" font-family="Arial" font-size="9">(−)</text>
  <line x1="145" y1="380" x2="160" y2="380" stroke="#e53935" stroke-width="2"/><text x="163" y="383" fill="#e53935" font-family="Arial" font-size="9">(+)</text>
  <text x="107" y="468" text-anchor="middle" fill="#1a6b3c" font-family="Arial" font-size="9">Functions: spindle fibers,</text>
  <text x="107" y="482" text-anchor="middle" fill="#1a6b3c" font-family="Arial" font-size="9">intracellular tracks,</text>
  <text x="107" y="496" text-anchor="middle" fill="#1a6b3c" font-family="Arial" font-size="9">cilia/flagella (9+2),</text>
  <text x="107" y="510" text-anchor="middle" fill="#1a6b3c" font-family="Arial" font-size="9">kinesin(+)/dynein(−)</text>

  <!-- Microfilament -->
  <rect x="212" y="290" width="175" height="250" rx="8" fill="#fce4ec" stroke="#f48fb1" stroke-width="2"/>
  <text x="300" y="315" text-anchor="middle" fill="#c62828" font-family="Arial" font-weight="bold" font-size="13">Microfilament</text>
  <text x="300" y="332" text-anchor="middle" fill="#666" font-family="Arial" font-size="10">7 nm — Smallest</text>
  <!-- Twisted double helix -->
  <path d="M260,355 C280,340 310,370 290,385 C270,400 260,355 260,355" stroke="#e53935" stroke-width="3" fill="none"/>
  <path d="M275,348 C295,333 325,363 305,378 C285,393 275,348 275,348" stroke="#e53935" stroke-width="3" fill="none"/>
  <text x="300" y="415" text-anchor="middle" fill="#333" font-family="Arial" font-size="10">Two intertwined</text>
  <text x="300" y="430" text-anchor="middle" fill="#333" font-family="Arial" font-size="10">actin chains</text>
  <text x="300" y="445" text-anchor="middle" fill="#333" font-family="Arial" font-size="10">G-actin monomers</text>
  <line x1="245" y1="380" x2="255" y2="380" stroke="#e53935" stroke-width="2"/><text x="235" y="383" fill="#e53935" font-family="Arial" font-size="9">(−)</text>
  <line x1="340" y1="380" x2="350" y2="380" stroke="#e53935" stroke-width="2"/><text x="355" y="383" fill="#e53935" font-family="Arial" font-size="9">(+)</text>
  <text x="300" y="468" text-anchor="middle" fill="#c62828" font-family="Arial" font-size="9">Functions: cell cortex,</text>
  <text x="300" y="482" text-anchor="middle" fill="#c62828" font-family="Arial" font-size="9">cytokinesis (contractile</text>
  <text x="300" y="496" text-anchor="middle" fill="#c62828" font-family="Arial" font-size="9">ring), muscle contraction</text>
  <text x="300" y="510" text-anchor="middle" fill="#c62828" font-family="Arial" font-size="9">motors: myosin</text>

  <!-- Intermediate filament -->
  <rect x="405" y="290" width="175" height="250" rx="8" fill="#f3e5f5" stroke="#ce93d8" stroke-width="2"/>
  <text x="492" y="315" text-anchor="middle" fill="#6a1b9a" font-family="Arial" font-weight="bold" font-size="13">Intermediate Filament</text>
  <text x="492" y="332" text-anchor="middle" fill="#666" font-family="Arial" font-size="10">10 nm — Intermediate</text>
  <!-- Rope-like cable -->
  <path d="M445,355 C455,345 465,355 455,365 C445,375 435,365 445,355" stroke="#6a1b9a" stroke-width="2.5" fill="none"/>
  <path d="M460,348 C470,338 480,348 470,358 C460,368 450,358 460,348" stroke="#6a1b9a" stroke-width="2.5" fill="none"/>
  <path d="M475,355 C485,345 495,355 485,365 C475,375 465,365 475,355" stroke="#6a1b9a" stroke-width="2.5" fill="none"/>
  <path d="M490,348 C500,338 510,348 500,358 C490,368 480,358 490,348" stroke="#6a1b9a" stroke-width="2.5" fill="none"/>
  <path d="M520,355 C530,345 540,355 530,365 C520,375 510,365 520,355" stroke="#6a1b9a" stroke-width="2.5" fill="none"/>
  <text x="492" y="415" text-anchor="middle" fill="#333" font-family="Arial" font-size="10">Rope-like cable</text>
  <text x="492" y="430" text-anchor="middle" fill="#333" font-family="Arial" font-size="10">Coiled-coil structure</text>
  <text x="492" y="445" text-anchor="middle" fill="#333" font-family="Arial" font-size="10">No polarity</text>
  <text x="492" y="468" text-anchor="middle" fill="#6a1b9a" font-family="Arial" font-size="9">Functions: mechanical</text>
  <text x="492" y="482" text-anchor="middle" fill="#6a1b9a" font-family="Arial" font-size="9">strength, nuclear lamina,</text>
  <text x="492" y="496" text-anchor="middle" fill="#6a1b9a" font-family="Arial" font-size="9">keratin (skin), desmosomes</text>
  <text x="492" y="510" text-anchor="middle" fill="#6a1b9a" font-family="Arial" font-size="9">Stable (not dynamic)</text>

  <!-- Motor proteins -->
  <rect x="20" y="555" width="560" height="80" rx="8" fill="#f5f5f5"/>
  <text x="300" y="578" text-anchor="middle" fill="#333" font-family="Arial" font-weight="bold" font-size="14">Motor Proteins on Microtubules</text>
  <text x="80" y="600" fill="#1565c0" font-family="Arial" font-weight="bold" font-size="12">Kinesin:</text>
  <text x="80" y="618" fill="#333" font-family="Arial" font-size="11">Moves toward (+) end → anterograde transport (cell center → periphery)</text>
  <text x="360" y="600" fill="#e53935" font-family="Arial" font-weight="bold" font-size="12">Dynein:</text>
  <text x="360" y="618" fill="#333" font-family="Arial" font-size="11">Moves toward (−) end → retrograde transport (periphery → cell center)</text>
</svg>