<svg xmlns="http://www.w3.org/2000/svg" viewBox="0 0 600 520">
  <rect width="600" height="520" fill="#fff"/>
  <text x="300" y="25" text-anchor="middle" font-family="Arial" font-size="16" fill="#1a6b3c" font-weight="bold">Monosaccharides: Galactose, Fructose, Ribose, Deoxyribose</text>
  <!-- GALACTOSE -->
  <text x="140" y="52" text-anchor="middle" font-family="Arial" font-size="13" fill="#1565c0" font-weight="bold">β-D-Galactose</text>
  <g transform="translate(15,62)">
    <polygon points="95,12 165,55 165,130 95,172 25,130 25,55" fill="#fce4ec" stroke="#333" stroke-width="2"/>
    <text x="95" y="-2" font-family="Arial" font-size="9" fill="#555">O</text>
    <text x="110" y="45" font-family="Arial" font-size="8" fill="#333">1</text>
    <text x="170" y="80" font-family="Arial" font-size="8" fill="#333">2</text>
    <text x="145" y="138" font-family="Arial" font-size="8" fill="#333">3</text>
    <text x="35" y="138" font-family="Arial" font-size="8" fill="#333">4</text>
    <text x="8" y="80" font-family="Arial" font-size="8" fill="#333">5</text>
    <line x1="25" y1="70" x2="10" y2="38" stroke="#333" stroke-width="1.2"/>
    <text x="0" y="34" font-family="Arial" font-size="7" fill="#555">CH₂OH</text>
    <text x="68" y="42" font-family="Arial" font-size="9" fill="#1565c0">OH↑</text>
    <text x="148" y="50" font-family="Arial" font-size="8" fill="#333">OH</text>
    <text x="78" y="150" font-family="Arial" font-size="9" fill="#e53935" font-weight="bold">OH↑</text>
    <text x="165" y="80" font-family="Arial" font-size="8" fill="#333">OH</text>
    <circle cx="78" cy="150" r="14" fill="none" stroke="#e53935" stroke-width="1.5" stroke-dasharray="3,2"/>
  </g>
  <text x="140" y="242" text-anchor="middle" font-family="Arial" font-size="10" fill="#e53935">C-4 OH UP (vs glucose DOWN)</text>
  <text x="140" y="256" text-anchor="middle" font-family="Arial" font-size="10" fill="#555">C-4 epimer of glucose</text>

  <!-- FRUCTOSE (furanose 5-ring) -->
  <text x="420" y="52" text-anchor="middle" font-family="Arial" font-size="13" fill="#1565c0" font-weight="bold">β-D-Fructose (furanose)</text>
  <g transform="translate(320,62)">
    <polygon points="95,5 145,55 115,110 45,110 15,55" fill="#fff3e0" stroke="#333" stroke-width="2"/>
    <text x="95" y="-5" font-family="Arial" font-size="9" fill="#555">O</text>
    <text x="110" y="50" font-family="Arial" font-size="8" fill="#e53935">2</text>
    <text x="130" y="100" font-family="Arial" font-size="8" fill="#333">3</text>
    <text x="50" y="100" font-family="Arial" font-size="8" fill="#333">4</text>
    <text x="10" y="50" font-family="Arial" font-size="8" fill="#333">5</text>
    <!-- two CH2OH groups -->
    <line x1="145" y1="52" x2="172" y2="32" stroke="#333" stroke-width="1.2"/>
    <text x="170" y="28" font-family="Arial" font-size="7" fill="#555">CH₂OH</text>
    <text x="100" y="122" font-family="Arial" font-size="7" fill="#555">CH₂OH (C-6)</text>
    <text x="80" y="50" font-family="Arial" font-size="8" fill="#333">OH</text>
  </g>
  <text x="420" y="242" text-anchor="middle" font-family="Arial" font-size="10" fill="#555">5-membered furanose ring</text>
  <text x="420" y="256" text-anchor="middle" font-family="Arial" font-size="10" fill="#555">Anomeric carbon = C-2 (ketose)</text>

  <!-- RIBOSE -->
  <text x="140" y="285" text-anchor="middle" font-family="Arial" font-size="13" fill="#1565c0" font-weight="bold">β-D-Ribose (RNA)</text>
  <g transform="translate(30,295)">
    <polygon points="80,5 120,45 100,95 30,95 5,50" fill="#e8eaf6" stroke="#333" stroke-width="2"/>
    <text x="80" y="-5" font-family="Arial" font-size="9" fill="#555">O</text>
    <text x="95" y="40" font-family="Arial" font-size="8" fill="#333">1</text>
    <text x="110" y="80" font-family="Arial" font-size="8" fill="#1565c0">2</text>
    <text x="45" y="80" font-family="Arial" font-size="8" fill="#333">3</text>
    <text x="0" y="40" font-family="Arial" font-size="8" fill="#333">4</text>
    <line x1="80" y1="10" x2="70" y2="-8" stroke="#333" stroke-width="1.2"/>
    <text x="55" y="-10" font-family="Arial" font-size="7" fill="#555">CH₂OH</text>
    <!-- OH groups all down -->
    <text x="90" y="32" font-family="Arial" font-size="8" fill="#333">OH</text>
    <text x="108" y="72" font-family="Arial" font-size="8" fill="#1565c0" font-weight="bold">OH↓</text>
    <text x="48" y="72" font-family="Arial" font-size="8" fill="#333">OH</text>
    <circle cx="108" cy="72" r="10" fill="none" stroke="#1565c0" stroke-width="1.5" stroke-dasharray="3,2"/>
  </g>
  <text x="140" y="410" text-anchor="middle" font-family="Arial" font-size="10" fill="#1565c0">C-2 has −OH → RNA</text>

  <!-- DEOXYRIBOSE -->
  <text x="420" y="285" text-anchor="middle" font-family="Arial" font-size="13" fill="#e53935" font-weight="bold">2-Deoxyribose (DNA)</text>
  <g transform="translate(320,295)">
    <polygon points="80,5 120,45 100,95 30,95 5,50" fill="#ffebee" stroke="#333" stroke-width="2"/>
    <text x="80" y="-5" font-family="Arial" font-size="9" fill="#555">O</text>
    <text x="95" y="40" font-family="Arial" font-size="8" fill="#333">1</text>
    <text x="110" y="80" font-family="Arial" font-size="8" fill="#e53935">2</text>
    <text x="45" y="80" font-family="Arial" font-size="8" fill="#333">3</text>
    <text x="0" y="40" font-family="Arial" font-size="8" fill="#333">4</text>
    <line x1="80" y1="10" x2="70" y2="-8" stroke="#333" stroke-width="1.2"/>
    <text x="55" y="-10" font-family="Arial" font-size="7" fill="#555">CH₂OH</text>
    <text x="90" y="32" font-family="Arial" font-size="8" fill="#333">OH</text>
    <text x="108" y="72" font-family="Arial" font-size="8" fill="#e53935" font-weight="bold">H↓</text>
    <text x="48" y="72" font-family="Arial" font-size="8" fill="#333">OH</text>
    <circle cx="108" cy="72" r="10" fill="none" stroke="#e53935" stroke-width="1.5" stroke-dasharray="3,2"/>
  </g>
  <text x="420" y="410" text-anchor="middle" font-family="Arial" font-size="10" fill="#e53935">C-2 has −H only → DNA (more stable)</text>

  <!-- Bottom note -->
  <text x="300" y="450" text-anchor="middle" font-family="Arial" font-size="12" fill="#555">The "missing oxygen" (deoxy) at C-2 makes DNA chemically more stable than RNA.</text>
</svg>