<svg xmlns="http://www.w3.org/2000/svg" viewBox="0 0 600 380">
  <rect width="600" height="380" fill="#fff"/>
  <text x="300" y="25" text-anchor="middle" font-family="Arial" font-size="16" fill="#1a6b3c" font-weight="bold">Glycoproteins &amp; Glycolipids on the Cell Membrane</text>
  <!-- Membrane bilayer -->
  <g transform="translate(30,160)">
    <!-- Top leaflet -->
    <circle cx="30" cy="10" r="8" fill="#81c784" stroke="#333" stroke-width="1"/>
    <circle cx="70" cy="10" r="8" fill="#81c784" stroke="#333" stroke-width="1"/>
    <circle cx="110" cy="10" r="8" fill="#81c784" stroke="#333" stroke-width="1"/>
    <circle cx="150" cy="10" r="8" fill="#81c784" stroke="#333" stroke-width="1"/>
    <circle cx="190" cy="10" r="8" fill="#81c784" stroke="#333" stroke-width="1"/>
    <circle cx="230" cy="10" r="8" fill="#81c784" stroke="#333" stroke-width="1"/>
    <circle cx="270" cy="10" r="8" fill="#81c784" stroke="#333" stroke-width="1"/>
    <circle cx="310" cy="10" r="8" fill="#81c784" stroke="#333" stroke-width="1"/>
    <circle cx="350" cy="10" r="8" fill="#81c784" stroke="#333" stroke-width="1"/>
    <circle cx="390" cy="10" r="8" fill="#81c784" stroke="#333" stroke-width="1"/>
    <circle cx="430" cy="10" r="8" fill="#81c784" stroke="#333" stroke-width="1"/>
    <circle cx="470" cy="10" r="8" fill="#81c784" stroke="#333" stroke-width="1"/>
    <circle cx="510" cy="10" r="8" fill="#81c784" stroke="#333" stroke-width="1"/>
    <!-- tails -->
    <line x1="30" y1="16" x2="25" y2="35" stroke="#333" stroke-width="1.5"/>
    <line x1="30" y1="16" x2="35" y2="35" stroke="#333" stroke-width="1.5"/>
    <line x1="70" y1="16" x2="65" y2="35" stroke="#333" stroke-width="1.5"/>
    <line x1="70" y1="16" x2="75" y2="35" stroke="#333" stroke-width="1.5"/>
    <line x1="110" y1="16" x2="105" y2="35" stroke="#333" stroke-width="1.5"/>
    <line x1="110" y1="16" x2="115" y2="35" stroke="#333" stroke-width="1.5"/>
    <line x1="150" y1="16" x2="145" y2="35" stroke="#333" stroke-width="1.5"/>
    <line x1="150" y1="16" x2="155" y2="35" stroke="#333" stroke-width="1.5"/>
    <!-- Bottom leaflet -->
    <line x1="30" y1="55" x2="25" y2="36" stroke="#333" stroke-width="1.5"/>
    <line x1="30" y1="55" x2="35" y2="36" stroke="#333" stroke-width="1.5"/>
    <circle cx="30" cy="60" r="8" fill="#81c784" stroke="#333" stroke-width="1"/>
    <line x1="70" y1="55" x2="65" y2="36" stroke="#333" stroke-width="1.5"/>
    <line x1="70" y1="55" x2="75" y2="36" stroke="#333" stroke-width="1.5"/>
    <circle cx="70" cy="60" r="8" fill="#81c784" stroke="#333" stroke-width="1"/>
  </g>
  <!-- Glycoprotein with branching carbohydrate -->
  <g transform="translate(180,60)">
    <rect x="45" y="0" width="30" height="130" rx="4" fill="#1565c0" opacity="0.3" stroke="#1565c0" stroke-width="2"/>
    <!-- carbohydrate branches -->
    <line x1="40" y1="2" x2="25" y2="-30" stroke="#e53935" stroke-width="2"/>
    <line x1="25" y1="-30" x2="10" y2="-55" stroke="#e53935" stroke-width="1.5"/>
    <line x1="25" y1="-30" x2="35" y2="-50" stroke="#e53935" stroke-width="1.5"/>
    <line x1="60" y1="0" x2="55" y2="-25" stroke="#e53935" stroke-width="2"/>
    <line x1="55" y1="-25" x2="45" y2="-45" stroke="#e53935" stroke-width="1.5"/>
    <line x1="55" y1="-25" x2="65" y2="-40" stroke="#e53935" stroke-width="1.5"/>
    <line x1="80" y1="2" x2="90" y2="-20" stroke="#e53935" stroke-width="2"/>
    <line x1="90" y1="-20" x2="80" y2="-38" stroke="#e53935" stroke-width="1.5"/>
    <line x1="90" y1="-20" x2="105" y2="-30" stroke="#e53935" stroke-width="1.5"/>
    <text x="60" y="-62" text-anchor="middle" font-family="Arial" font-size="10" fill="#e53935" font-weight="bold">Carbohydrate chains (glycocalyx)</text>
    <text x="60" y="145" text-anchor="middle" font-family="Arial" font-size="10" fill="#1565c0" font-weight="bold">Transmembrane Protein</text>
  </g>
  <!-- Glycolipid -->
  <g transform="translate(430,100)">
    <line x1="20" y1="-30" x2="10" y2="-55" stroke="#ff8f00" stroke-width="2"/>
    <line x1="20" y1="-30" x2="35" y2="-50" stroke="#ff8f00" stroke-width="1.5"/>
    <circle cx="20" cy="-20" r="6" fill="#ffcc80" stroke="#ff8f00" stroke-width="1.5"/>
    <text x="20" y="-62" text-anchor="middle" font-family="Arial" font-size="10" fill="#ff8f00" font-weight="bold">Glycolipid</text>
  </g>
  <text x="300" y="145" text-anchor="middle" font-family="Arial" font-size="11" fill="#555">EXTRACELLULAR</text>
  <text x="300" y="310" text-anchor="middle" font-family="Arial" font-size="11" fill="#555">CYTOPLASM</text>
  <rect x="50" y="335" width="500" height="35" rx="5" fill="#f5f5f5" stroke="#ddd"/>
  <text x="300" y="357" text-anchor="middle" font-family="Arial" font-size="11" fill="#333">Carbohydrates → cell recognition, adhesion • ABO blood groups • Glycocalyx protects cell surface</text>
</svg>