<svg xmlns="http://www.w3.org/2000/svg" viewBox="0 0 600 440">
  <rect width="600" height="440" fill="#fff"/>
  <text x="300" y="26" text-anchor="middle" font-family="Arial" font-size="16" fill="#1a6b3c" font-weight="bold">α-Glucose vs β-Glucose — Haworth Projections</text>
  <!-- Left: Alpha-glucose -->
  <text x="160" y="50" text-anchor="middle" font-family="Arial" font-size="15" fill="#1565c0" font-weight="bold">α-D-Glucose</text>
  <g transform="translate(30,65)">
    <polygon points="100,15 175,65 175,145 100,195 25,145 25,65" fill="#e8f5e9" stroke="#333" stroke-width="2.5"/>
    <text x="100" y="0" font-family="Arial" font-size="10" fill="#555">O</text>
    <!-- C labels -->
    <text x="115" y="50" font-family="Arial" font-size="9" fill="#e53935">1</text>
    <text x="180" y="90" font-family="Arial" font-size="9" fill="#333">2</text>
    <text x="155" y="145" font-family="Arial" font-size="9" fill="#333">3</text>
    <text x="45" y="145" font-family="Arial" font-size="9" fill="#333">4</text>
    <text x="15" y="90" font-family="Arial" font-size="9" fill="#333">5</text>
    <!-- CH2OH on C5 -->
    <line x1="25" y1="80" x2="10" y2="42" stroke="#333" stroke-width="1.5"/>
    <text x="0" y="38" font-family="Arial" font-size="8" fill="#555">CH₂OH</text>
    <!-- OH groups - C1 OH DOWN (alpha) -->
    <text x="120" y="30" font-family="Arial" font-size="10" fill="#e53935" font-weight="bold">OH↓</text>
    <text x="185" y="82" font-family="Arial" font-size="9" fill="#333">OH</text>
    <text x="160" y="152" font-family="Arial" font-size="9" fill="#333">OH</text>
    <text x="18" y="152" font-family="Arial" font-size="9" fill="#333">OH</text>
    <!-- Arrow for C1 OH -->
    <line x1="115" y1="35" x2="115" y2="55" stroke="#e53935" stroke-width="2" marker-end="url(#arrowRed)"/>
  </g>
  <!-- Right: Beta-glucose -->
  <text x="440" y="50" text-anchor="middle" font-family="Arial" font-size="15" fill="#e53935" font-weight="bold">β-D-Glucose</text>
  <g transform="translate(320,65)">
    <polygon points="100,15 175,65 175,145 100,195 25,145 25,65" fill="#e8f5e9" stroke="#333" stroke-width="2.5"/>
    <text x="100" y="0" font-family="Arial" font-size="10" fill="#555">O</text>
    <text x="115" y="50" font-family="Arial" font-size="9" fill="#e53935">1</text>
    <text x="180" y="90" font-family="Arial" font-size="9" fill="#333">2</text>
    <text x="155" y="145" font-family="Arial" font-size="9" fill="#333">3</text>
    <text x="45" y="145" font-family="Arial" font-size="9" fill="#333">4</text>
    <text x="15" y="90" font-family="Arial" font-size="9" fill="#333">5</text>
    <line x1="25" y1="80" x2="10" y2="42" stroke="#333" stroke-width="1.5"/>
    <text x="0" y="38" font-family="Arial" font-size="8" fill="#555">CH₂OH</text>
    <!-- C1 OH UP (beta) -->
    <text x="120" y="18" font-family="Arial" font-size="10" fill="#e53935" font-weight="bold">OH↑</text>
    <text x="185" y="82" font-family="Arial" font-size="9" fill="#333">OH</text>
    <text x="160" y="152" font-family="Arial" font-size="9" fill="#333">OH</text>
    <text x="18" y="152" font-family="Arial" font-size="9" fill="#333">OH</text>
    <line x1="115" y1="24" x2="115" y2="44" stroke="#e53935" stroke-width="2"/>
  </g>
  <!-- Equilibrium arrow -->
  <text x="300" y="200" text-anchor="middle" font-family="Arial" font-size="14" fill="#6a1b9a">⇌ mutarotation (via open-chain form)</text>
  <!-- Bottom info -->
  <rect x="40" y="240" width="520" height="90" rx="6" fill="#f5f5f5" stroke="#ddd"/>
  <text x="300" y="262" text-anchor="middle" font-family="Arial" font-size="12" fill="#555">α-glucose: C-1 −OH DOWN (opposite CH₂OH) → found in STARCH &amp; GLYCOGEN</text>
  <text x="300" y="284" text-anchor="middle" font-family="Arial" font-size="12" fill="#555">β-glucose: C-1 −OH UP (same side as CH₂OH) → found in CELLULOSE</text>
  <text x="300" y="310" text-anchor="middle" font-family="Arial" font-size="11" fill="#e53935" font-weight="bold">This single −OH orientation determines digestibility!</text>
  <!-- Key uses -->
  <text x="160" y="365" text-anchor="middle" font-family="Arial" font-size="13" fill="#1565c0">α-1,4 → starch (helical, digestible)</text>
  <text x="440" y="365" text-anchor="middle" font-family="Arial" font-size="13" fill="#e53935">β-1,4 → cellulose (straight, indigestible)</text>
</svg>