<svg xmlns="http://www.w3.org/2000/svg" viewBox="0 0 600 480">
  <rect width="600" height="480" fill="#fff"/>
  <text x="300" y="25" text-anchor="middle" font-family="Arial" font-size="16" fill="#1a6b3c" font-weight="bold">Polysaccharides: Starch (Amylose + Amylopectin), Glycogen, Cellulose</text>

  <!-- AMYLOSE -->
  <text x="105" y="55" text-anchor="middle" font-family="Arial" font-size="12" fill="#1565c0" font-weight="bold">Amylose</text>
  <text x="105" y="70" text-anchor="middle" font-family="Arial" font-size="9" fill="#555">α-1,4 only, helical</text>
  <g transform="translate(15,80)">
    <!-- Helical coil -->
    <path d="M10,70 Q20,50 30,70 Q40,90 50,70 Q60,50 70,70 Q80,90 90,70 Q100,50 110,70 Q120,90 130,70 Q140,50 150,70" fill="none" stroke="#43a047" stroke-width="3"/>
    <path d="M10,70 Q20,90 30,70 Q40,50 50,70 Q60,90 70,70 Q80,50 90,70 Q100,90 110,70 Q120,50 130,70 Q140,90 150,70" fill="none" stroke="#81c784" stroke-width="2" stroke-dasharray="5,3"/>
    <!-- Iodine inside -->
    <g fill="#6a1b9a">
      <circle cx="30" cy="70" r="2.5"/>
      <circle cx="36" cy="68" r="2.5"/>
      <circle cx="42" cy="67" r="2.5"/>
      <circle cx="48" cy="68" r="2.5"/>
      <circle cx="54" cy="70" r="2.5"/>
    </g>
    <text x="5" y="55" font-family="Arial" font-size="7" fill="#6a1b9a">I₃⁻→</text>
  </g>
  <text x="105" y="120" text-anchor="middle" font-family="Arial" font-size="8" fill="#6a1b9a">Blue-black with iodine</text>

  <!-- AMYLOPECTIN -->
  <text x="300" y="55" text-anchor="middle" font-family="Arial" font-size="12" fill="#1565c0" font-weight="bold">Amylopectin (starch) &amp; Glycogen</text>
  <text x="300" y="70" text-anchor="middle" font-family="Arial" font-size="9" fill="#555">α-1,4 backbone + α-1,6 branches</text>
  <g transform="translate(170,80)">
    <!-- Main chain -->
    <path d="M0,70 L180,70" stroke="#43a047" stroke-width="3"/>
    <!-- Branch 1 -->
    <path d="M40,70 L40,30" stroke="#43a047" stroke-width="2"/>
    <circle cx="40" cy="70" r="5" fill="#e53935"/>
    <text x="45" y="65" font-family="Arial" font-size="7" fill="#e53935">α-1,6</text>
    <!-- Branch 2 -->
    <path d="M100,70 L100,30" stroke="#43a047" stroke-width="2"/>
    <circle cx="100" cy="70" r="5" fill="#e53935"/>
    <!-- Branch 3 -->
    <path d="M140,70 L140,95" stroke="#43a047" stroke-width="2"/>
    <circle cx="140" cy="70" r="5" fill="#e53935"/>
    <text x="150" y="105" font-family="Arial" font-size="7" fill="#555">Amylopectin: ~1 branch / 20 glu</text>
  </g>
  <text x="300" y="120" text-anchor="middle" font-family="Arial" font-size="8" fill="#e53935">Glycogen: ~1 branch / 10 glu (more highly branched)</text>

  <!-- CELLULOSE -->
  <text x="470" y="55" text-anchor="middle" font-family="Arial" font-size="12" fill="#e53935" font-weight="bold">Cellulose</text>
  <text x="470" y="70" text-anchor="middle" font-family="Arial" font-size="9" fill="#555">β-1,4 straight chains</text>
  <g transform="translate(380,80)">
    <!-- 3 parallel straight chains -->
    <line x1="0" y1="50" x2="120" y2="50" stroke="#e53935" stroke-width="2"/>
    <line x1="0" y1="65" x2="120" y2="65" stroke="#e53935" stroke-width="2"/>
    <line x1="0" y1="80" x2="120" y2="80" stroke="#e53935" stroke-width="2"/>
    <!-- H-bonds between chains -->
    <line x1="20" y1="50" x2="20" y2="65" stroke="#1565c0" stroke-width="1" stroke-dasharray="4,3"/>
    <line x1="50" y1="50" x2="50" y2="65" stroke="#1565c0" stroke-width="1" stroke-dasharray="4,3"/>
    <line x1="80" y1="50" x2="80" y2="65" stroke="#1565c0" stroke-width="1" stroke-dasharray="4,3"/>
    <line x1="20" y1="65" x2="20" y2="80" stroke="#1565c0" stroke-width="1" stroke-dasharray="4,3"/>
    <line x1="50" y1="65" x2="50" y2="80" stroke="#1565c0" stroke-width="1" stroke-dasharray="4,3"/>
    <line x1="80" y1="65" x2="80" y2="80" stroke="#1565c0" stroke-width="1" stroke-dasharray="4,3"/>
  </g>
  <text x="470" y="120" text-anchor="middle" font-family="Arial" font-size="8" fill="#1565c0">H-bonds → microfibrils</text>

  <!-- COMPARISON TABLE -->
  <rect x="30" y="150" width="540" height="320" rx="6" fill="#fafafa" stroke="#ddd"/>
  <text x="300" y="175" text-anchor="middle" font-family="Arial" font-size="13" fill="#333" font-weight="bold">Critical Comparison</text>
  <!-- Table header -->
  <line x1="30" y1="188" x2="570" y2="188" stroke="#ddd" stroke-width="1"/>
  <text x="100" y="202" font-family="Arial" font-size="9" fill="#555">Bond Type</text>
  <text x="255" y="202" font-family="Arial" font-size="9" fill="#555">3D Shape</text>
  <text x="380" y="202" font-family="Arial" font-size="9" fill="#555">Digestible?</text>
  <text x="500" y="202" font-family="Arial" font-size="9" fill="#555">Function</text>
  <line x1="30" y1="210" x2="570" y2="210" stroke="#ddd" stroke-width="1"/>
  <!-- Row 1 -->
  <text x="100" y="227" font-family="Arial" font-size="9" fill="#1565c0">α-1,4 (only)</text>
  <text x="255" y="227" font-family="Arial" font-size="9" fill="#333">Helical (6 glu/turn)</text>
  <text x="380" y="227" font-family="Arial" font-size="9" fill="#43a047">Yes (amylase)</text>
  <text x="500" y="227" font-family="Arial" font-size="9" fill="#333">Energy storage (plants)</text>
  <line x1="30" y1="232" x2="570" y2="232" stroke="#eee"/>
  <!-- Row 2 -->
  <text x="100" y="248" font-family="Arial" font-size="9" fill="#1565c0">α-1,4 + α-1,6</text>
  <text x="255" y="248" font-family="Arial" font-size="9" fill="#333">Branched tree</text>
  <text x="380" y="248" font-family="Arial" font-size="9" fill="#43a047">Yes (amylase)</text>
  <text x="500" y="248" font-family="Arial" font-size="9" fill="#333">Quick glucose release</text>
  <line x1="30" y1="253" x2="570" y2="253" stroke="#eee"/>
  <!-- Row 3 -->
  <text x="100" y="269" font-family="Arial" font-size="9" fill="#1565c0">α-1,4 + α-1,6</text>
  <text x="255" y="269" font-family="Arial" font-size="9" fill="#333">Dense shrub (many branches)</text>
  <text x="380" y="269" font-family="Arial" font-size="9" fill="#43a047">Yes (amylase)</text>
  <text x="500" y="269" font-family="Arial" font-size="9" fill="#333">Energy storage (animals)</text>
  <line x1="30" y1="274" x2="570" y2="274" stroke="#eee"/>
  <!-- Row 4 -->
  <text x="100" y="290" font-family="Arial" font-size="9" fill="#e53935" font-weight="bold">β-1,4 (only)</text>
  <text x="255" y="290" font-family="Arial" font-size="9" fill="#333">Straight (alternating flip)</text>
  <text x="380" y="290" font-family="Arial" font-size="9" fill="#e53935" font-weight="bold">No (need cellulase)</text>
  <text x="500" y="290" font-family="Arial" font-size="9" fill="#333">Structural (plant cell walls)</text>

  <!-- Key insight -->
  <text x="300" y="340" text-anchor="middle" font-family="Arial" font-size="12" fill="#e53935" font-weight="bold">β-1,4 makes ALL the difference — straight chains → H-bonds → microfibrils → tensile strength</text>
  <text x="300" y="360" text-anchor="middle" font-family="Arial" font-size="11" fill="#555">Every other glucose flipped 180° prevents helical coiling</text>
  <text x="300" y="385" text-anchor="middle" font-family="Arial" font-size="12" fill="#333">α-1,4 → helical → amylase can digest | β-1,4 → straight → needs cellulase</text>
  <text x="300" y="410" text-anchor="middle" font-family="Arial" font-size="11" fill="#555">Ruminants have symbiotic bacteria producing cellulase; humans do not.</text>
</svg>