<svg xmlns="http://www.w3.org/2000/svg" viewBox="0 0 600 500">
  <rect width="600" height="500" fill="#fff"/>
  <text x="300" y="25" text-anchor="middle" font-family="Arial" font-size="16" fill="#1a6b3c" font-weight="bold">Disaccharides: Maltose, Sucrose, Lactose</text>

  <!-- MALTOSE -->
  <text x="300" y="52" text-anchor="middle" font-family="Arial" font-size="13" fill="#1565c0" font-weight="bold">Maltose: α-Glucose + Glucose (α-1,4 glycosidic bond)</text>
  <g transform="translate(150,65)">
    <!-- Left glucose -->
    <polygon points="70,8 125,42 125,105 70,138 15,105 15,42" fill="#e8f5e9" stroke="#333" stroke-width="1.8"/>
    <text x="70" y="0" font-family="Arial" font-size="8" fill="#555">O</text>
    <text x="82" y="38" font-family="Arial" font-size="7" fill="#333">α</text>
    <!-- Glycosidic bond -->
    <line x1="125" y1="42" x2="140" y2="42" stroke="#e53935" stroke-width="2.5"/>
    <text x="132" y="35" font-family="Arial" font-size="7" fill="#e53935">O</text>
    <!-- Right glucose -->
    <polygon points="140,8 195,42 195,105 140,138 85,105 85,42" fill="#e8f5e9" stroke="#333" stroke-width="1.8"/>
    <text x="140" y="0" font-family="Arial" font-size="8" fill="#555">O</text>
  </g>
  <text x="300" y="210" text-anchor="middle" font-family="Arial" font-size="10" fill="#e53935">α-1,4 bond | Reducing sugar | Produced during starch digestion</text>

  <!-- SUCROSE -->
  <text x="300" y="245" text-anchor="middle" font-family="Arial" font-size="13" fill="#6a1b9a" font-weight="bold">Sucrose: α-Glucose + β-Fructose (α-1,2 glycosidic bond)</text>
  <g transform="translate(155,258)">
    <polygon points="70,8 125,42 125,105 70,138 15,105 15,42" fill="#e8f5e9" stroke="#333" stroke-width="1.8"/>
    <text x="70" y="0" font-family="Arial" font-size="7" fill="#555">O (Glc)</text>
    <line x1="125" y1="42" x2="138" y2="42" stroke="#6a1b9a" stroke-width="2.5"/>
    <polygon points="138,12 168,45 150,90 108,90 90,45" fill="#fff3e0" stroke="#333" stroke-width="1.8"/>
    <text x="138" y="5" font-family="Arial" font-size="7" fill="#555">O (Fru)</text>
  </g>
  <text x="300" y="400" text-anchor="middle" font-family="Arial" font-size="10" fill="#6a1b9a">α-1,2 bond | NON-reducing (both anomeric carbons locked) | Table sugar</text>

  <!-- LACTOSE -->
  <text x="300" y="428" text-anchor="middle" font-family="Arial" font-size="13" fill="#ff8f00" font-weight="bold">Lactose: β-Galactose + Glucose (β-1,4 glycosidic bond)</text>
  <g transform="translate(152,440)">
    <polygon points="68,8 120,42 120,100 68,130 16,100 16,42" fill="#fce4ec" stroke="#333" stroke-width="1.5"/>
    <text x="68" y="0" font-family="Arial" font-size="7" fill="#555">O (Gal)</text>
    <line x1="120" y1="42" x2="132" y2="42" stroke="#ff8f00" stroke-width="2"/>
    <polygon points="132,8 185,42 185,100 132,130 79,100 79,42" fill="#e8f5e9" stroke="#333" stroke-width="1.5"/>
    <text x="132" y="0" font-family="Arial" font-size="7" fill="#555">O (Glc)</text>
  </g>
</svg>