<?xml version="1.0" encoding="UTF-8"?>
<svg xmlns="http://www.w3.org/2000/svg" viewBox="0 0 600 420" width="600" height="420">
  <rect width="600" height="420" fill="#fff"/>
  <text x="300" y="22" text-anchor="middle" font-family="Arial" font-size="16" font-weight="bold" fill="#333">Seed Structure — Dicot (e.g. Bean)</text>

  <!-- Seed outline -->
  <ellipse cx="280" cy="230" rx="110" ry="75" fill="#f5f5f0" stroke="#795548" stroke-width="3"/>

  <!-- Testa (seed coat) -->
  <ellipse cx="280" cy="230" rx="110" ry="75" fill="none" stroke="#5d4037" stroke-width="3"/>
  <text x="280" y="315" text-anchor="middle" font-family="Arial" font-size="11" fill="#5d4037" font-weight="bold">Testa (seed coat)</text>
  <text x="280" y="328" text-anchor="middle" font-family="Arial" font-size="9" fill="#795548">protective outer layer</text>

  <!-- Hilum (scar) -->
  <ellipse cx="230" cy="300" rx="10" ry="5" fill="#4e342e" stroke="#3e2723" stroke-width="1"/>
  <text x="205" y="340" text-anchor="middle" font-family="Arial" font-size="8" fill="#5d4037">Hilum (scar)</text>

  <!-- Micropyle -->
  <circle cx="260" cy="303" r="2" fill="#333"/>
  <text x="280" y="345" font-family="Arial" font-size="8" fill="#555">Micropyle</text>

  <!-- Embryo region -->
  <text x="280" y="45" text-anchor="middle" font-family="Arial" font-size="13" fill="#1a6b3c" font-weight="bold">EMBRYO (2n sporophyte)</text>

  <!-- Plumule (shoot) -->
  <path d="M280,170 Q275,140 260,110 Q250,90 270,85 L275,75 L280,85 Q300,90 290,110 Q275,140 280,170" fill="#81c784" stroke="#1a6b3c" stroke-width="2"/>
  <text x="280" y="68" text-anchor="middle" font-family="Arial" font-size="11" fill="#1a6b3c" font-weight="bold">Plumule</text>
  <text x="280" y="55" text-anchor="middle" font-family="Arial" font-size="9" fill="#444">(embryonic shoot)</text>

  <!-- Radicle (root) -->
  <path d="M280,280 L280,370" stroke="#43a047" stroke-width="5" stroke-linecap="round"/>
  <text x="280" y="392" text-anchor="middle" font-family="Arial" font-size="11" fill="#1a6b3c" font-weight="bold">Radicle</text>
  <text x="280" y="405" text-anchor="middle" font-family="Arial" font-size="9" fill="#444">(embryonic root)</text>

  <!-- Hypocotyl -->
  <line x1="280" y1="170" x2="280" y2="280" stroke="#66bb6a" stroke-width="4"/>
  <text x="260" y="225" text-anchor="end" font-family="Arial" font-size="9" fill="#4caf50">Hypocotyl</text>

  <!-- Cotyledons -->
  <ellipse cx="260" cy="220" rx="45" ry="55" fill="#a5d6a7" stroke="#2e7d32" stroke-width="2" opacity="0.8"/>
  <ellipse cx="305" cy="220" rx="45" ry="55" fill="#c8e6c9" stroke="#2e7d32" stroke-width="2" opacity="0.8"/>

  <text x="240" y="245" text-anchor="middle" font-family="Arial" font-size="10" fill="#1a6b3c" font-weight="bold">Cotyledon</text>
  <text x="240" y="258" text-anchor="middle" font-family="Arial" font-size="8" fill="#555">(seed leaf,</text>
  <text x="240" y="269" text-anchor="middle" font-family="Arial" font-size="8" fill="#555">food storage)</text>

  <text x="325" y="245" text-anchor="middle" font-family="Arial" font-size="10" fill="#1a6b3c" font-weight="bold">Cotyledon</text>

  <!-- Endosperm -->
  <path d="M210,200 Q200,220 205,250 Q210,270 230,275" fill="none" stroke="#ff8f00" stroke-width="1.5" stroke-dasharray="3,2"/>
  <text x="178" y="230" text-anchor="end" font-family="Arial" font-size="9" fill="#ff8f00">Endosperm</text>
  <text x="178" y="242" text-anchor="end" font-family="Arial" font-size="8" fill="#ff8f00">(3n nutrient)</text>

  <!-- Legend -->
  <rect x="420" y="50" width="160" height="140" rx="5" fill="#f5f5f5" stroke="#ccc" stroke-width="1"/>
  <text x="500" y="70" text-anchor="middle" font-family="Arial" font-size="11" fill="#333" font-weight="bold">Parts Summary</text>
  <rect x="430" y="80" width="20" height="12" rx="2" fill="#5d4037"/>
  <text x="458" y="90" font-family="Arial" font-size="10" fill="#333">Testa — seed coat</text>
  <rect x="430" y="98" width="20" height="12" rx="2" fill="#81c784"/>
  <text x="458" y="108" font-family="Arial" font-size="10" fill="#333">Plumule — shoot</text>
  <rect x="430" y="116" width="20" height="12" rx="2" fill="#43a047"/>
  <text x="458" y="126" font-family="Arial" font-size="10" fill="#333">Radicle — root</text>
  <rect x="430" y="134" width="20" height="12" rx="2" fill="#a5d6a7"/>
  <text x="458" y="144" font-family="Arial" font-size="10" fill="#333">Cotyledons (×2)</text>
  <rect x="430" y="152" width="20" height="12" rx="2" fill="#fff3e0" stroke="#ff8f00" stroke-width="1"/>
  <text x="458" y="162" font-family="Arial" font-size="10" fill="#333">Endosperm (3n)</text>
</svg>