<?xml version="1.0" encoding="UTF-8"?>
<svg xmlns="http://www.w3.org/2000/svg" viewBox="0 0 600 520" width="600" height="520">
  <rect width="600" height="520" fill="#fff"/>
  <text x="300" y="22" text-anchor="middle" font-family="Arial" font-size="16" font-weight="bold" fill="#333">Flower Structure — Longitudinal Section</text>

  <!-- Pedicel -->
  <rect x="278" y="470" width="44" height="40" rx="3" fill="#8d6e63" stroke="#5d4037" stroke-width="2"/>
  <text x="300" y="500" text-anchor="middle" font-family="Arial" font-size="10" fill="#fff">Pedicel</text>

  <!-- Receptacle -->
  <ellipse cx="300" cy="448" rx="48" ry="18" fill="#a1887f" stroke="#5d4037" stroke-width="2"/>
  <text x="300" y="452" text-anchor="middle" font-family="Arial" font-size="10" fill="#fff" font-weight="bold">Receptacle</text>

  <!-- Sepals -->
  <path d="M220,440 Q200,420 210,400 Q220,410 250,440" fill="#81c784" stroke="#1a6b3c" stroke-width="2"/>
  <path d="M380,440 Q400,420 390,400 Q380,410 350,440" fill="#81c784" stroke="#1a6b3c" stroke-width="2"/>
  <text x="195" y="420" font-family="Arial" font-size="10" fill="#1a6b3c">Sepals</text>

  <!-- Petals -->
  <path d="M220,420 Q160,330 170,290 Q200,350 260,420" fill="#e57373" stroke="#c62828" stroke-width="2"/>
  <path d="M380,420 Q440,330 430,290 Q400,350 340,420" fill="#e57373" stroke="#c62828" stroke-width="2"/>
  <path d="M240,410 Q200,300 210,270 Q250,330 280,410" fill="#ef9a9a" stroke="#c62828" stroke-width="1.5"/>
  <path d="M360,410 Q400,300 390,270 Q350,330 320,410" fill="#ef9a9a" stroke="#c62828" stroke-width="1.5"/>
  <text x="155" y="310" font-family="Arial" font-size="11" fill="#e53935" font-weight="bold">Petals</text>
  <text x="155" y="324" font-family="Arial" font-size="9" fill="#c62828">(corolla)</text>

  <!-- Stamen (right) -->
  <!-- Filament -->
  <line x1="360" y1="410" x2="400" y2="290" stroke="#43a047" stroke-width="4"/>
  <text x="385" y="360" font-family="Arial" font-size="10" fill="#1a6b3c" font-weight="bold">Filament</text>

  <!-- Anther -->
  <ellipse cx="400" cy="275" rx="22" ry="16" fill="#ff8f00" stroke="#e65100" stroke-width="2"/>
  <line x1="388" y1="275" x2="412" y2="275" stroke="#e65100" stroke-width="1.5"/>
  <text x="400" y="272" text-anchor="middle" font-family="Arial" font-size="10" fill="#fff" font-weight="bold">Anther</text>

  <!-- Pollen grain dots -->
  <circle cx="390" cy="268" r="2" fill="#ffcc80"/>
  <circle cx="400" cy="265" r="2" fill="#ffcc80"/>
  <circle cx="410" cy="270" r="2" fill="#ffcc80"/>

  <!-- Stamen label -->
  <text x="445" y="290" font-family="Arial" font-size="12" fill="#1a6b3c" font-weight="bold">STAMEN</text>
  <text x="445" y="304" font-family="Arial" font-size="9" fill="#555">(male)</text>

  <!-- Carpel (center) -->
  <!-- Stigma -->
  <ellipse cx="300" cy="260" rx="18" ry="10" fill="#81c784" stroke="#2e7d32" stroke-width="2"/>
  <text x="300" y="250" text-anchor="middle" font-family="Arial" font-size="10" fill="#1a6b3c" font-weight="bold">Stigma</text>
  <text x="300" y="240" text-anchor="middle" font-family="Arial" font-size="8" fill="#666">(sticky surface)</text>

  <!-- Style -->
  <rect x="293" y="270" width="14" height="100" fill="#a5d6a7" stroke="#2e7d32" stroke-width="2"/>
  <text x="290" y="325" text-anchor="end" font-family="Arial" font-size="10" fill="#1a6b3c" font-weight="bold">Style</text>

  <!-- Ovary -->
  <ellipse cx="300" cy="400" rx="32" ry="28" fill="#c8e6c9" stroke="#2e7d32" stroke-width="2.5"/>
  <text x="300" y="397" text-anchor="middle" font-family="Arial" font-size="10" fill="#1a6b3c" font-weight="bold">Ovary</text>

  <!-- Ovule inside ovary -->
  <ellipse cx="300" cy="410" rx="16" ry="12" fill="#fff9c4" stroke="#ff8f00" stroke-width="2"/>
  <text x="300" y="413" text-anchor="middle" font-family="Arial" font-size="8" fill="#e65100">Ovule</text>

  <!-- Embryo sac -->
  <circle cx="300" cy="412" r="6" fill="#fff" stroke="#ff8f00" stroke-width="1"/>
  <text x="300" y="414" text-anchor="middle" font-family="Arial" font-size="6" fill="#e65100">Embryo</text>
  <text x="300" y="420" text-anchor="middle" font-family="Arial" font-size="6" fill="#e65100">sac</text>

  <!-- Carpel label -->
  <text x="245" y="290" font-family="Arial" font-size="12" fill="#1a6b3c" font-weight="bold">CARPEL</text>
  <text x="245" y="304" font-family="Arial" font-size="9" fill="#555">(female)</text>

  <!-- Nectary -->
  <ellipse cx="260" cy="430" rx="15" ry="8" fill="#ffecb3" stroke="#ff8f00" stroke-width="1.5"/>
  <text x="260" y="432" text-anchor="middle" font-family="Arial" font-size="7" fill="#e65100">Nectary</text>
  <ellipse cx="340" cy="430" rx="15" ry="8" fill="#ffecb3" stroke="#ff8f00" stroke-width="1.5"/>
  <text x="340" y="432" text-anchor="middle" font-family="Arial" font-size="7" fill="#e65100">Nectary</text>

  <!-- Whorl labels bottom -->
  <text x="90" y="480" font-family="Arial" font-size="9" fill="#666">4 whorls: calyx (sepals) → corolla (petals) → androecium (stamens) → gynoecium (carpels)</text>
</svg>